<svg width="49" height="38" viewBox="0 0 49 38" fill="none" xmlns="http://www.w3.org/2000/svg">
<path fill-rule="evenodd" clip-rule="evenodd" d="M46.416 37.6673C46.416 37.6673 49.4993 37.6673 49.4993 34.5562C49.4993 31.4451 46.416 22.1118 34.0827 22.1118C21.7493 22.1118 18.666 31.4451 18.666 34.5562C18.666 37.6673 21.7493 37.6673 21.7493 37.6673H46.416ZM21.8172 34.5562H46.3482C46.3626 34.5545 46.377 34.5524 46.3913 34.55L46.416 34.5438C46.4098 33.7224 45.9011 31.3393 44.0727 29.1926C42.3707 27.1798 39.3798 25.2229 34.0827 25.2229C28.7886 25.2229 25.7978 27.1829 24.0927 29.1926C22.2643 31.3393 21.7524 33.7255 21.7493 34.5438C21.7719 34.5482 21.7945 34.5523 21.8172 34.5562ZM34.0827 15.8895C35.7182 15.8895 37.2867 15.234 38.4432 14.0671C39.5996 12.9002 40.2493 11.3176 40.2493 9.66732C40.2493 8.01708 39.5996 6.43443 38.4432 5.26754C37.2867 4.10065 35.7182 3.4451 34.0827 3.4451C32.4472 3.4451 30.8787 4.10065 29.7222 5.26754C28.5657 6.43443 27.916 8.01708 27.916 9.66732C27.916 11.3176 28.5657 12.9002 29.7222 14.0671C30.8787 15.234 32.4472 15.8895 34.0827 15.8895ZM43.3327 9.66732C43.3327 10.893 43.0934 12.1067 42.6286 13.239C42.1637 14.3714 41.4824 15.4003 40.6234 16.267C39.7645 17.1337 38.7448 17.8211 37.6225 18.2902C36.5002 18.7592 35.2974 19.0007 34.0827 19.0007C32.868 19.0007 31.6651 18.7592 30.5429 18.2902C29.4206 17.8211 28.4009 17.1337 27.5419 16.267C26.683 15.4003 26.0017 14.3714 25.5368 13.239C25.0719 12.1067 24.8327 10.893 24.8327 9.66732C24.8327 7.19196 25.8072 4.81799 27.5419 3.06765C29.2767 1.31732 31.6294 0.333984 34.0827 0.333984C36.5359 0.333984 38.8887 1.31732 40.6234 3.06765C42.3581 4.81799 43.3327 7.19196 43.3327 9.66732ZM21.552 22.9829C20.3186 22.591 19.0472 22.3334 17.7595 22.2144C17.036 22.145 16.3095 22.1107 15.5827 22.1118C3.24935 22.1118 0.166016 31.4451 0.166016 34.5562C0.166016 36.6313 1.19277 37.6673 3.24935 37.6673H16.2487C15.7916 36.6961 15.5636 35.6312 15.5827 34.5562C15.5827 31.414 16.7451 28.2033 18.9435 25.5215C19.6928 24.6069 20.5653 23.7513 21.552 22.9829ZM15.336 25.2229C10.193 25.2851 7.2731 27.214 5.59268 29.1926C3.75193 31.3518 3.24935 33.7442 3.24935 34.5562H12.4993C12.4993 31.3051 13.4953 28.0664 15.336 25.2229ZM4.79102 11.2229C4.79102 8.74752 5.76557 6.37355 7.50028 4.62321C9.23499 2.87287 11.5878 1.88954 14.041 1.88954C16.4943 1.88954 18.847 2.87287 20.5818 4.62321C22.3165 6.37355 23.291 8.74752 23.291 11.2229C23.291 13.6982 22.3165 16.0722 20.5818 17.8225C18.847 19.5729 16.4943 20.5562 14.041 20.5562C11.5878 20.5562 9.23499 19.5729 7.50028 17.8225C5.76557 16.0722 4.79102 13.6982 4.79102 11.2229ZM14.041 5.00065C12.4055 5.00065 10.837 5.6562 9.68052 6.8231C8.52405 7.98999 7.87435 9.57264 7.87435 11.2229C7.87435 12.8731 8.52405 14.4558 9.68052 15.6226C10.837 16.7895 12.4055 17.4451 14.041 17.4451C15.6765 17.4451 17.245 16.7895 18.4015 15.6226C19.558 14.4558 20.2077 12.8731 20.2077 11.2229C20.2077 9.57264 19.558 7.98999 18.4015 6.8231C17.245 5.6562 15.6765 5.00065 14.041 5.00065Z" fill="#E77C40"/>
</svg>
